<svg width="147" height="162" viewBox="0 0 147 162" fill="none" xmlns="http://www.w3.org/2000/svg">
<path d="M103.594 135C94.7182 135 86.4916 132.483 79.6666 128.199L99.7242 109.688H112.734C114.419 109.688 115.781 108.43 115.781 106.875C115.781 105.32 114.419 104.062 112.734 104.062H100.547V92.8125C100.547 91.2572 99.1849 90 97.5 90C95.8151 90 94.4531 91.2572 94.4531 92.8125V106.588L76.1719 123.469V120.938V88.3519L87.5002 77.8978C88.6915 76.7981 88.6945 75.015 87.5032 73.9153C86.3119 72.8156 84.3405 72.8606 83.1492 73.9603L73.125 83.2106L62.9728 73.8394C61.7815 72.7397 60.127 72.9928 58.9387 74.0925C57.7444 75.1978 57.6134 76.8544 58.8047 77.9541L70.0781 88.3575V120.938V123.463L51.7969 106.599V92.8125C51.7969 91.2572 50.4349 90 48.75 90C47.0651 90 45.7031 91.2572 45.7031 92.8125V104.062H33.5156C31.8307 104.062 30.4688 105.32 30.4688 106.875C30.4688 108.43 31.8307 109.688 33.5156 109.688H46.5258L66.5834 128.199C59.7584 132.483 51.5318 135 42.6562 135C19.0978 135 0 117.371 0 95.625C0 76.3003 15.0881 60.2663 34.9781 56.9194C32.1171 51.6347 30.4688 45.6862 30.4688 39.375C30.4688 17.6288 49.5666 0 73.125 0C96.6834 0 115.781 17.6288 115.781 39.375C115.781 45.6862 114.133 51.6347 111.272 56.9194C131.162 60.2663 146.25 76.3003 146.25 95.625C146.25 117.371 127.152 135 103.594 135Z" fill="#57A868"/>
<g clip-path="url(#clip0_2_30)">
<path fill-rule="evenodd" clip-rule="evenodd" d="M118.444 118.932C117.449 142.489 97.8856 161.287 73.8878 161.287C49.2536 161.287 29.2838 140.816 29.2838 117.051C29.2838 113.875 29.2264 107.527 34.0289 96.816C36.903 90.4061 38.7057 86.3793 39.723 82.6983C40.282 80.6753 41.3691 77.4612 44.4681 82.6983C46.2955 85.7863 46.3662 90.2277 46.3662 90.2277C46.3662 90.2277 53.165 85.0536 57.7544 75.1689C64.4825 60.6781 59.1144 52.016 57.2799 45.9924C56.645 43.9087 56.2464 40.1637 60.6015 41.7572C65.0391 43.3812 76.7709 51.5256 82.9034 60.1101C91.6558 72.3619 94.7662 84.1101 94.7662 84.1101C94.7662 84.1101 97.5686 80.6607 98.5623 77.0513C99.6845 72.9755 99.7011 68.9388 103.307 73.287C106.736 77.4221 111.829 85.1929 114.696 92.5807C119.9 105.997 118.444 118.932 118.444 118.932Z" fill="url(#paint0_linear_2_30)"/>
<path fill-rule="evenodd" clip-rule="evenodd" d="M73.8878 161.287C56.8533 161.287 43.0446 147.592 43.0446 130.698C43.0446 120.505 47.1866 114.316 55.807 105.924C61.3265 100.55 66.4925 93.9501 68.6881 89.4559C69.1204 88.5712 70.104 83.9609 73.8968 89.359C75.8864 92.1901 79.0053 97.2249 81.0054 101.522C84.4532 108.93 85.276 116.11 85.276 116.11C85.276 116.11 88.655 114.135 90.9701 109.051C91.7165 107.413 93.2255 101.209 97.4438 107.412C100.539 111.963 104.791 120.147 104.731 130.698C104.731 147.592 90.9217 161.287 73.8878 161.287Z" fill="#FC9502"/>
<path fill-rule="evenodd" clip-rule="evenodd" d="M74.3623 127.875C78.7515 127.875 78.7515 135.935 84.327 146.698C88.0395 153.865 82.4863 161.287 74.3623 161.287C66.2382 161.287 62.025 154.755 62.025 146.698C62.025 138.642 69.973 127.875 74.3623 127.875Z" fill="#FCE202"/>
</g>
<defs>
<linearGradient id="paint0_linear_2_30" x1="73.9547" y1="161.375" x2="73.9547" y2="41.4635" gradientUnits="userSpaceOnUse">
<stop stop-color="#FF4C0D"/>
<stop offset="1" stop-color="#FC9502"/>
</linearGradient>
<clipPath id="clip0_2_30">
<rect width="121" height="120" fill="white" transform="translate(13.625 41.375)"/>
</clipPath>
</defs>
</svg>
